<svg xmlns="http://www.w3.org/2000/svg" version="1.1" xmlns:xlink="http://www.w3.org/1999/xlink" xmlns:svgjs="http://svgjs.dev/svgjs" width="260" height="50" viewBox="0 0 1000 123"><g transform="matrix(1,0,0,1,-0.6060606060606233,0.3219128609761839)"><svg viewBox="0 0 396 49" data-background-color="#ffffff" preserveAspectRatio="xMidYMid meet" height="123" width="1000" xmlns="http://www.w3.org/2000/svg" xmlns:xlink="http://www.w3.org/1999/xlink"><g id="tight-bounds" transform="matrix(1,0,0,1,0.2400000000000091,-0.12824170884417185)"><svg viewBox="0 0 395.52 49.25648341768835" height="49.25648341768835" width="395.52"><g><svg viewBox="0 0 496.95133043211763 61.88833678910742" height="49.25648341768835" width="395.52"><g><rect width="4.038461707963295" height="53.73806378214826" x="86.8209794362923" y="4.07513650347958" fill="#000000" opacity="1" stroke-width="0" stroke="transparent" fill-opacity="1" class="rect-o-0" data-fill-palette-color="primary" rx="1%" id="o-0" data-palette-color="#000000"></rect></g><g transform="matrix(1,0,0,1,101.43133043211762,8.553308485325267)"><svg viewBox="0 0 395.52 44.781719818456885" height="44.781719818456885" width="395.52"><g id="textblocktransform"><svg viewBox="0 0 395.52 44.781719818456885" height="44.781719818456885" width="395.52" id="textblock"><g><svg viewBox="0 0 395.52 44.781719818456885" height="44.781719818456885" width="395.52"><g transform="matrix(1,0,0,1,0,0)"><svg width="395.52" viewBox="2.690000057220459 -35.45000076293945 403.4100036621094 45.68000030517578" height="44.781719818456885" data-palette-color="#000000"><path d="M21.48 0.63L21.48 0.63Q21 0.59 20.46 0.54 19.92 0.49 19.43 0.39L19.43 0.39Q16.04-0.22 13-1.77 9.96-3.32 7.67-5.63 5.37-7.93 4.03-10.89 2.69-13.84 2.69-17.26L2.69-17.26Q2.69-21.29 4.2-24.62 5.71-27.95 8.36-30.36 11.01-32.76 14.64-34.08 18.26-35.4 22.51-35.4L22.51-35.4Q25.22-35.4 27.7-34.8 30.18-34.2 32.31-33.11 34.45-32.01 36.21-30.41 37.96-28.81 39.2-26.83 40.43-24.85 41.11-22.5 41.8-20.14 41.8-17.5L41.8-17.5Q41.8-14.6 40.82-12.04 39.84-9.47 38.12-7.3 36.4-5.13 34.07-3.37 31.74-1.61 29.05-0.32L29.05-0.32Q30.1 0.46 31.14 1.25 32.18 2.03 33.08 2.72 33.98 3.42 34.7 3.98 35.42 4.54 35.86 4.91L35.86 4.91Q36.11 5.1 36.19 5.18 36.28 5.25 36.33 5.27L36.33 5.27Q37.35 6.1 38.34 6.81 39.33 7.52 40.19 7.86L40.19 7.86Q40.31 7.91 40.42 7.93 40.53 7.96 40.7 8.01L40.7 8.01 40.67 8.01Q41.04 8.08 41.46 8.19 41.87 8.3 42.22 8.44 42.58 8.57 42.8 8.7 43.02 8.84 43.02 8.98L43.02 8.98Q43.02 9.45 42.64 9.7 42.26 9.96 41.67 10.07 41.09 10.18 40.39 10.21 39.7 10.23 39.09 10.23L39.09 10.23Q37.08 10.23 35.47 9.77 33.86 9.3 32.32 8.4L32.32 8.4Q31.18 7.71 30.18 7.02 29.17 6.32 28.26 5.62 27.34 4.91 26.46 4.16 25.59 3.42 24.66 2.59L24.66 2.59Q23.88 1.88 23.11 1.31 22.34 0.73 21.48 0.63ZM9.81-18.24L9.81-18.24Q9.81-16.19 10.24-14.17 10.67-12.16 11.49-10.33 12.3-8.5 13.49-6.95 14.67-5.4 16.19-4.26 17.7-3.13 19.53-2.48 21.36-1.83 23.46-1.83L23.46-1.83Q25.83-1.83 27.91-2.88 29.98-3.93 31.51-5.86 33.03-7.79 33.91-10.52 34.79-13.26 34.79-16.6L34.79-16.6Q34.79-19.65 33.96-22.52 33.13-25.39 31.48-27.65 29.83-29.91 27.36-31.36 24.88-32.81 21.58-33.08L21.58-33.08Q18.87-33.08 16.69-31.88 14.5-30.69 12.98-28.65 11.45-26.61 10.63-23.93 9.81-21.24 9.81-18.24ZM46.53-30.15L46.53-30.15Q46.53-30.86 46.2-31.41 45.87-31.96 45.31-32.32 44.75-32.69 44.02-32.89 43.28-33.08 42.45-33.08L42.45-33.08Q42.26-33.08 42.26-33.28L42.26-33.28 42.26-34.23Q42.26-34.42 42.43-34.42L42.43-34.42 57.86-34.42Q57.98-34.42 58.02-34.35 58.05-34.28 58.05-34.23L58.05-34.23 58.05-33.28Q58.05-33.23 58.02-33.15 57.98-33.08 57.86-33.08L57.86-33.08Q57.13-33.08 56.36-32.98 55.59-32.89 54.94-32.54 54.29-32.2 53.89-31.56 53.49-30.91 53.49-29.81L53.49-29.81 53.49-12.7Q53.49-7.81 55.98-5.14 58.47-2.47 63.43-2.47L63.43-2.47Q65.48-2.47 67.36-3.04 69.24-3.61 70.68-4.81 72.12-6.01 72.97-7.86 73.83-9.72 73.83-12.28L73.83-12.28 73.83-27.44Q73.83-28.27 73.76-29.15 73.7-30.03 73.36-30.81 73.02-31.59 72.29-32.17 71.56-32.74 70.21-32.96L70.21-32.96Q69.6-33.06 69.2-33.07 68.8-33.08 68.67-33.08L68.67-33.08Q68.48-33.08 68.48-33.28L68.48-33.28 68.48-34.23Q68.48-34.42 68.67-34.42L68.67-34.42 81.42-34.42Q81.54-34.42 81.58-34.35 81.61-34.28 81.61-34.23L81.61-34.23 81.61-33.28Q81.61-33.23 81.56-33.15 81.52-33.08 81.42-33.08L81.42-33.08Q80.54-33.08 79.87-32.95 79.2-32.81 78.85-32.67L78.85-32.67Q78.44-32.5 78.1-32.14 77.76-31.79 77.52-31.38 77.29-30.98 77.17-30.55 77.05-30.13 77.05-29.81L77.05-29.81 77.05-14.18Q77.05-10.74 76.14-8 75.24-5.25 73.42-3.33 71.6-1.42 68.85-0.38 66.09 0.66 62.4 0.66L62.4 0.66Q60.64 0.66 58.77 0.39 56.91 0.12 55.14-0.46 53.37-1.05 51.8-1.98 50.24-2.91 49.07-4.2 47.9-5.49 47.21-7.18 46.53-8.86 46.53-10.99L46.53-10.99 46.53-30.15ZM95.31-4.64L95.31-4.64Q95.31-3.81 95.56-3.25 95.82-2.69 96.3-2.34 96.77-2 97.47-1.86 98.16-1.71 99.02-1.71L99.02-1.71Q99.21-1.71 99.21-1.51L99.21-1.51 99.21-0.2Q99.21-0.12 99.19-0.06 99.16 0 99.02 0L99.02 0 84.59 0Q84.47 0 84.43-0.07 84.39-0.15 84.39-0.2L84.39-0.2 84.39-1.51Q84.39-1.56 84.43-1.64 84.47-1.71 84.59-1.71L84.59-1.71Q85.44-1.71 86.14-1.82 86.84-1.93 87.32-2.29 87.81-2.66 88.08-3.34 88.35-4.03 88.35-5.2L88.35-5.2 88.35-29.79Q88.35-30.62 88.09-31.18 87.84-31.74 87.36-32.08 86.88-32.42 86.19-32.57 85.49-32.71 84.64-32.71L84.64-32.71Q84.44-32.71 84.44-32.91L84.44-32.91 84.44-34.23Q84.44-34.42 84.64-34.42L84.64-34.42 99.07-34.42Q99.19-34.42 99.23-34.35 99.26-34.28 99.26-34.23L99.26-34.23 99.26-32.91Q99.26-32.86 99.23-32.79 99.19-32.71 99.07-32.71L99.07-32.71Q98.21-32.71 97.52-32.6 96.82-32.5 96.33-32.13 95.84-31.76 95.58-31.08 95.31-30.4 95.31-29.22L95.31-29.22 95.31-4.64ZM104.02-16.99L104.02-16.99Q104.02-19.73 104.7-22.16 105.39-24.58 106.63-26.64 107.88-28.69 109.64-30.32 111.39-31.96 113.53-33.09 115.67-34.23 118.11-34.84 120.55-35.45 123.21-35.45L123.21-35.45Q125.46-35.45 127.54-35.05 129.63-34.64 131.85-34.11L131.85-34.11Q132.22-34.01 132.62-33.86 133.02-33.72 133.38-33.58 133.73-33.45 134.03-33.35 134.32-33.25 134.47-33.25L134.47-33.25Q134.51-33.25 134.79-33.35 135.08-33.45 135.2-33.45L135.2-33.45 136.32-33.45Q136.61-33.45 136.61-33.03L136.61-33.03 136.61-25.07Q136.61-24.93 136.5-24.88 136.39-24.83 136.03-24.83L136.03-24.83Q135.95-24.83 135.65-24.84 135.34-24.85 135.27-24.98L135.27-24.98Q135.22-25.05 135.09-25.27 134.95-25.49 134.79-25.72 134.64-25.95 134.5-26.16 134.37-26.37 134.34-26.44L134.34-26.44Q133.42-28.27 132.32-29.53 131.22-30.79 129.89-31.57 128.56-32.35 126.99-32.7 125.43-33.06 123.6-33.06L123.6-33.06Q121.28-33.06 119.49-32.52 117.69-31.98 116.35-31.01 115.01-30.03 114.09-28.66 113.18-27.29 112.6-25.67 112.03-24.05 111.77-22.2 111.52-20.36 111.52-18.41L111.52-18.41Q111.52-16.33 111.81-14.29 112.1-12.26 112.76-10.41 113.42-8.57 114.46-6.99 115.5-5.42 116.96-4.26 118.43-3.1 120.38-2.44 122.33-1.78 124.8-1.78L124.8-1.78Q126.87-1.78 128.67-2.4 130.46-3.03 131.95-4.09 133.44-5.15 134.6-6.53 135.76-7.91 136.59-9.42L136.59-9.42Q136.64-9.55 136.7-9.56 136.76-9.57 136.88-9.57L136.88-9.57 138.13-9.57Q138.2-9.57 138.29-9.51 138.37-9.45 138.37-9.25L138.37-9.25Q138.37-9.18 138.26-8.87 138.15-8.57 138.03-8.35L138.03-8.35 134.66-0.93Q134.61-0.85 134.51-0.81 134.42-0.76 134.34-0.76L134.34-0.76Q133.76-0.76 133.53-0.85 133.29-0.95 133.05-0.95L133.05-0.95Q132.32-0.95 131.11-0.7 129.9-0.44 128.5-0.15 127.09 0.15 125.66 0.4 124.24 0.66 123.11 0.66L123.11 0.66Q120.55 0.66 118.13 0.1 115.72-0.46 113.59-1.53 111.47-2.59 109.71-4.14 107.95-5.69 106.68-7.64 105.41-9.59 104.72-11.95 104.02-14.31 104.02-16.99ZM146.3-4.27L146.3-30.15Q146.3-30.98 145.85-31.54 145.4-32.1 144.69-32.46 143.98-32.81 143.12-32.98 142.25-33.15 141.42-33.2L141.42-33.2Q141.23-33.2 141.23-33.4L141.23-33.4 141.23-34.23Q141.23-34.42 141.4-34.42L141.4-34.42 157.95-34.42Q158.07-34.42 158.11-34.35 158.14-34.28 158.14-34.23L158.14-34.23 158.14-33.4Q158.14-33.25 157.95-33.25L157.95-33.25Q157.24-33.25 156.42-33.13 155.61-33.01 154.9-32.67 154.19-32.32 153.73-31.71 153.26-31.1 153.26-30.1L153.26-30.1 153.26-20.07Q153.26-19.04 153.33-18.48 153.41-17.92 153.68-17.92L153.68-17.92Q153.82-17.92 153.96-17.93 154.09-17.94 154.21-18.02L154.21-18.02Q155.61-18.65 156.72-19.56 157.83-20.46 158.77-21.53 159.71-22.61 160.52-23.8 161.34-25 162.15-26.25L162.15-26.25Q162.59-26.93 163.08-27.6 163.56-28.27 163.97-28.91 164.37-29.54 164.64-30.14 164.91-30.74 164.91-31.32L164.91-31.32Q164.91-31.98 164.59-32.36 164.27-32.74 163.78-32.92 163.3-33.11 162.73-33.15 162.17-33.2 161.68-33.2L161.68-33.2 161.44-33.2Q161.32-33.2 161.28-33.28 161.24-33.35 161.24-33.4L161.24-33.4 161.24-34.23Q161.24-34.28 161.27-34.35 161.29-34.42 161.44-34.42L161.44-34.42 176.28-34.42Q176.41-34.42 176.44-34.35 176.48-34.28 176.48-34.23L176.48-34.23 176.48-33.4Q176.48-33.33 176.41-33.22 176.33-33.11 176.19-33.11L176.19-33.11Q174.7-33.06 173.49-32.86 172.28-32.67 171.28-32.2 170.28-31.74 169.44-30.92 168.59-30.1 167.84-28.83L167.84-28.83Q166.54-26.64 165.52-25.07 164.49-23.51 163.7-22.44 162.91-21.36 162.34-20.7 161.78-20.04 161.4-19.62 161.03-19.19 160.82-18.91 160.61-18.63 160.56-18.36L160.56-18.36Q160.68-18.12 161.12-17.71 161.56-17.31 162.28-16.65 163-15.99 164-15.01 165-14.04 166.27-12.61 167.54-11.18 169.08-9.24 170.62-7.3 172.4-4.76L172.4-4.76Q173.26-3.52 174.55-2.76 175.84-2 177.46-1.66L177.46-1.66Q178.29-1.46 178.77-1.37 179.26-1.27 179.56-1.23 179.85-1.2 180.03-1.18 180.21-1.17 180.43-1.17L180.43-1.17Q180.56-1.17 180.59-1.1 180.63-1.03 180.63-0.98L180.63-0.98 180.63-0.2Q180.63 0 180.43 0L180.43 0 162.27 0Q162.07 0 162.07-0.2L162.07-0.2 162.07-1.03Q162.07-1.2 162.27-1.22L162.27-1.22Q162.59-1.27 163.16-1.26 163.74-1.25 164.28-1.32 164.83-1.39 165.25-1.66 165.66-1.93 165.66-2.54L165.66-2.54Q165.62-2.95 165.11-3.76 164.61-4.57 163.88-5.53 163.15-6.49 162.31-7.5 161.46-8.5 160.76-9.3L160.76-9.3Q159.9-10.25 159.13-11.24 158.36-12.23 157.56-13.05 156.75-13.87 155.87-14.38 154.99-14.89 153.97-14.89L153.97-14.89 153.51-14.89Q153.31-14.89 153.29-14.81 153.26-14.72 153.26-14.55L153.26-14.55 153.26-4.22Q153.26-3.13 153.71-2.51 154.16-1.9 154.86-1.61 155.56-1.32 156.39-1.25 157.22-1.17 157.95-1.17L157.95-1.17Q158.07-1.17 158.11-1.1 158.14-1.03 158.14-0.98L158.14-0.98 158.14-0.2Q158.14-0.15 158.11-0.07 158.07 0 157.95 0L157.95 0 141.4 0Q141.23 0 141.23-0.2L141.23-0.2 141.23-1.03Q141.23-1.22 141.42-1.22L141.42-1.22Q142.25-1.25 143.12-1.43 143.98-1.61 144.69-1.97 145.4-2.32 145.85-2.88 146.3-3.44 146.3-4.27L146.3-4.27ZM180.92-0.54L180.92-1.25Q180.92-1.27 180.94-1.35 180.97-1.44 181.12-1.44L181.12-1.44 181.65-1.44Q182.68-1.51 183.75-1.53 184.83-1.54 185.71-1.79 186.58-2.05 187.15-2.7 187.71-3.34 187.71-4.71L187.71-4.71 187.71-29.71Q187.71-30.66 187.32-31.26 186.93-31.86 186.29-32.23 185.66-32.59 184.85-32.78 184.05-32.96 183.22-33.08L183.22-33.08 182.7-33.08Q182.58-33.08 182.54-33.15 182.51-33.23 182.51-33.28L182.51-33.28 182.51-34.23Q182.51-34.28 182.54-34.35 182.58-34.42 182.7-34.42L182.7-34.42 207.02-34.42Q207.46-34.42 207.65-34.27 207.85-34.11 207.9-33.57L207.9-33.57 208.34-25.76Q208.34-25.63 208.13-25.57 207.92-25.51 207.75-25.51L207.75-25.51Q207.56-25.51 207.36-25.56 207.17-25.61 207.09-25.71L207.09-25.71Q206.92-25.95 206.85-26.43 206.77-26.9 206.69-27.49 206.6-28.08 206.45-28.71 206.29-29.35 205.97-29.88 205.65-30.42 205.1-30.82 204.55-31.23 203.7-31.37L203.7-31.37 194.98-31.37Q194.67-31.37 194.67-31.05L194.67-31.05 194.67-19.41Q194.67-19.17 194.91-19.17L194.91-19.17 201.89-19.17Q202.5-19.17 203.1-19.32 203.7-19.48 204.15-19.9 204.6-20.31 204.88-21.06 205.16-21.8 205.16-22.97L205.16-22.97Q205.16-23.17 205.36-23.17L205.36-23.17 206.31-23.17Q206.51-23.17 206.51-22.97L206.51-22.97 206.51-11.79Q206.51-11.67 206.43-11.63 206.36-11.6 206.31-11.6L206.31-11.6 205.36-11.6Q205.24-11.6 205.2-11.67 205.16-11.74 205.16-11.79L205.16-11.79Q205.16-13.16 204.88-14 204.6-14.84 204.14-15.32 203.67-15.8 203.08-15.95 202.48-16.11 201.82-16.11L201.82-16.11 194.91-16.11Q194.67-16.11 194.67-15.87L194.67-15.87 194.67-5.2Q194.67-4.49 194.88-4.06 195.1-3.64 195.48-3.42 195.86-3.2 196.35-3.13 196.84-3.05 197.38-3.05L197.38-3.05 204.04-3.05Q205.46-3.05 206.41-3.7 207.36-4.35 207.95-5.27 208.53-6.2 208.81-7.2 209.09-8.2 209.17-8.91L209.17-8.91Q209.22-9.23 209.48-9.41 209.75-9.59 210.09-9.59L210.09-9.59Q210.22-9.59 210.39-9.5 210.56-9.4 210.56-9.28L210.56-9.28 209.75-0.34Q209.7-0.22 209.62-0.11 209.53 0 209.41 0L209.41 0 181.12 0Q180.97 0 180.94-0.09 180.92-0.17 180.92-0.2L180.92-0.2 180.92-0.54ZM213.78-0.98L213.78-1.27Q213.78-1.29 213.8-1.38 213.83-1.46 213.97-1.46L213.97-1.46Q214.12-1.46 214.44-1.51 214.76-1.56 215.1-1.61 215.44-1.66 215.73-1.72 216.03-1.78 216.15-1.81L216.15-1.81Q217.54-2.12 218.09-2.84 218.64-3.56 218.64-4.64L218.64-4.64 218.64-29.44Q218.64-30.66 218.12-31.37 217.61-32.08 216.94-32.43 216.27-32.79 215.65-32.87 215.02-32.96 214.8-32.96L214.8-32.96 213.88-32.96Q213.75-32.96 213.72-33.03 213.68-33.11 213.68-33.15L213.68-33.15 213.68-34.23Q213.68-34.28 213.71-34.34 213.73-34.4 213.88-34.42L213.88-34.42Q213.9-34.42 213.99-34.42 214.07-34.42 214.34-34.44 214.61-34.45 215.12-34.46 215.63-34.47 216.56-34.5L216.56-34.5Q217.9-34.52 219.43-34.57 220.96-34.62 222.52-34.67 224.08-34.72 225.61-34.75 227.13-34.79 228.48-34.79L228.48-34.79 230.94-34.79Q232.87-34.79 234.87-34.13 236.87-33.47 238.5-32.19 240.12-30.91 241.16-29 242.2-27.1 242.2-24.61L242.2-24.61Q242.2-23 241.76-21.74 241.32-20.48 240.55-19.52 239.78-18.55 238.72-17.82 237.66-17.09 236.41-16.53L236.41-16.53 243.81-4.81Q244.76-3.3 246.03-2.06 247.3-0.83 248.98-0.34L248.98-0.34Q249.18-0.29 249.22-0.21 249.25-0.12 249.25 0L249.25 0Q249.25 0.37 249.06 0.49 248.86 0.61 248.45 0.61L248.45 0.61Q247.42 0.61 246.12 0.48 244.81 0.34 243.49 0.04 242.17-0.27 240.99-0.76 239.8-1.25 239-1.98L239-1.98Q238.22-2.66 237.41-3.71 236.61-4.76 235.79-5.97 234.97-7.18 234.18-8.48 233.38-9.79 232.64-11.04 231.89-12.28 231.21-13.35 230.53-14.43 229.97-15.19L229.97-15.19 226.16-15.45Q226.13-15.45 225.96-15.45 225.79-15.45 225.72-15.41L225.72-15.41Q225.64-15.36 225.62-15.31 225.6-15.26 225.6-15.11L225.6-15.11 225.6-4.71Q225.6-4.05 225.77-3.56 225.94-3.08 226.34-2.72 226.74-2.37 227.39-2.15 228.04-1.93 228.96-1.81L228.96-1.81Q229.11-1.78 229.39-1.73 229.67-1.68 230-1.62 230.33-1.56 230.65-1.51 230.97-1.46 231.19-1.46L231.19-1.46Q231.33-1.46 231.36-1.39 231.38-1.32 231.38-1.27L231.38-1.27 231.38-0.2Q231.38-0.15 231.34-0.07 231.31 0 231.19 0L231.19 0 213.97 0Q213.85 0 213.82-0.34 213.78-0.68 213.78-0.98L213.78-0.98ZM225.6-18.63L225.64-17.9Q225.67-17.7 225.75-17.54 225.84-17.38 226.11-17.36L226.11-17.36Q226.33-17.33 226.77-17.27 227.21-17.21 227.99-17.21L227.99-17.21Q230.14-17.21 231.53-17.87 232.92-18.53 233.73-19.64 234.53-20.75 234.84-22.19 235.14-23.63 235.14-25.2L235.14-25.2Q235.14-26.83 234.63-28.3 234.12-29.76 233.2-30.83 232.28-31.91 231-32.54 229.72-33.18 228.18-33.18L228.18-33.18Q227.84-33.18 227.65-33.17 227.45-33.15 227.27-33.14 227.08-33.13 226.85-33.12 226.62-33.11 226.21-33.08L226.21-33.08Q226.06-33.08 225.83-33.02 225.6-32.96 225.6-32.69L225.6-32.69 225.6-18.63ZM265.53-16.99L265.53-16.99Q265.53-19.73 266.22-22.16 266.9-24.58 268.14-26.64 269.39-28.69 271.15-30.32 272.9-31.96 275.04-33.09 277.18-34.23 279.62-34.84 282.06-35.45 284.72-35.45L284.72-35.45Q286.97-35.45 289.05-35.05 291.14-34.64 293.36-34.11L293.36-34.11Q293.73-34.01 294.13-33.86 294.54-33.72 294.89-33.58 295.24-33.45 295.54-33.35 295.83-33.25 295.98-33.25L295.98-33.25Q296.02-33.25 296.31-33.35 296.59-33.45 296.71-33.45L296.71-33.45 297.83-33.45Q298.12-33.45 298.12-33.03L298.12-33.03 298.12-25.07Q298.12-24.93 298.01-24.88 297.9-24.83 297.54-24.83L297.54-24.83Q297.47-24.83 297.16-24.84 296.86-24.85 296.78-24.98L296.78-24.98Q296.73-25.05 296.6-25.27 296.46-25.49 296.31-25.72 296.15-25.95 296.01-26.16 295.88-26.37 295.85-26.44L295.85-26.44Q294.93-28.27 293.83-29.53 292.73-30.79 291.4-31.57 290.07-32.35 288.51-32.7 286.94-33.06 285.11-33.06L285.11-33.06Q282.79-33.06 281-32.52 279.2-31.98 277.86-31.01 276.52-30.03 275.6-28.66 274.69-27.29 274.11-25.67 273.54-24.05 273.28-22.2 273.03-20.36 273.03-18.41L273.03-18.41Q273.03-16.33 273.32-14.29 273.61-12.26 274.27-10.41 274.93-8.57 275.97-6.99 277.01-5.42 278.47-4.26 279.94-3.1 281.89-2.44 283.84-1.78 286.31-1.78L286.31-1.78Q288.38-1.78 290.18-2.4 291.97-3.03 293.46-4.09 294.95-5.15 296.11-6.53 297.27-7.91 298.1-9.42L298.1-9.42Q298.15-9.55 298.21-9.56 298.27-9.57 298.39-9.57L298.39-9.57 299.64-9.57Q299.71-9.57 299.8-9.51 299.88-9.45 299.88-9.25L299.88-9.25Q299.88-9.18 299.77-8.87 299.66-8.57 299.54-8.35L299.54-8.35 296.17-0.93Q296.12-0.85 296.02-0.81 295.93-0.76 295.85-0.76L295.85-0.76Q295.27-0.76 295.04-0.85 294.8-0.95 294.56-0.95L294.56-0.95Q293.83-0.95 292.62-0.7 291.41-0.44 290.01-0.15 288.6 0.15 287.17 0.4 285.75 0.66 284.62 0.66L284.62 0.66Q282.06 0.66 279.64 0.1 277.23-0.46 275.1-1.53 272.98-2.59 271.22-4.14 269.46-5.69 268.19-7.64 266.92-9.59 266.23-11.95 265.53-14.31 265.53-16.99ZM300.64-0.2L300.64-1.15Q300.64-1.34 300.83-1.34L300.83-1.34Q301.3-1.37 301.92-1.48 302.54-1.59 303.19-1.94 303.83-2.29 304.45-2.99 305.06-3.69 305.47-4.91L305.47-4.91 315.29-33.37Q315.29-33.35 315.3-33.4 315.31-33.45 315.31-33.5L315.31-33.5Q315.31-33.67 315.18-33.92 315.04-34.18 315.04-34.3L315.04-34.3Q315.04-34.42 315.14-34.42L315.14-34.42 322.22-34.42Q322.27-34.4 322.35-34.38 322.44-34.35 322.49-34.23L322.49-34.23 332.81-5.25Q333.06-4.57 333.28-4.08 333.5-3.59 333.8-3.21 334.11-2.83 334.57-2.53 335.04-2.22 335.77-1.9L335.77-1.9Q336.11-1.73 336.7-1.54 337.28-1.34 337.82-1.34L337.82-1.34Q337.94-1.34 337.98-1.27 338.01-1.2 338.01-1.12L338.01-1.12 338.01-0.2Q338.01-0.15 337.98-0.07 337.94 0 337.82 0L337.82 0 320.68 0Q320.56 0 320.52-0.07 320.49-0.15 320.49-0.2L320.49-0.2 320.49-1.15Q320.49-1.2 320.52-1.27 320.56-1.34 320.68-1.34L320.68-1.34Q320.78-1.34 320.88-1.35 320.97-1.37 321.02-1.37L321.02-1.37Q321.29-1.39 321.79-1.42 322.29-1.44 322.88-1.5 323.46-1.56 324.06-1.7 324.66-1.83 325.15-2.09 325.64-2.34 325.95-2.76 326.27-3.17 326.27-3.78L326.27-3.78Q326.27-3.93 326.22-4.13L326.22-4.13 323.02-12.94Q323-12.99 322.94-13.16 322.88-13.33 322.74-13.51 322.61-13.7 322.4-13.84 322.19-13.99 321.9-13.99L321.9-13.99 313.09-13.99Q312.77-13.99 312.55-13.84 312.33-13.7 312.18-13.53 312.04-13.35 311.95-13.18 311.87-13.01 311.87-12.99L311.87-12.99Q311.09-10.69 310.55-9.12 310.01-7.54 309.66-6.52 309.3-5.49 309.11-4.93 308.91-4.37 308.83-4.11 308.74-3.86 308.73-3.8 308.72-3.74 308.72-3.74L308.72-3.74Q308.72-3.66 308.74-3.58 308.77-3.49 308.79-3.42L308.79-3.42Q308.99-2.81 309.51-2.4 310.04-2 310.72-1.77 311.4-1.54 312.12-1.44 312.84-1.34 313.41-1.34L313.41-1.34 314.04-1.34Q314.16-1.34 314.2-1.27 314.24-1.2 314.24-1.15L314.24-1.15 314.24-0.2Q314.24-0.15 314.2-0.07 314.16 0 314.04 0L314.04 0 300.83 0Q300.64 0 300.64-0.2L300.64-0.2ZM316.51-26.39L313.43-17.5Q313.38-17.38 313.36-17.26 313.33-17.14 313.33-17.02L313.33-17.02Q313.33-16.87 313.41-16.78 313.48-16.7 313.7-16.7L313.7-16.7 321.02-16.7Q321.29-16.7 321.38-16.81 321.46-16.92 321.46-17.07L321.46-17.07Q321.46-17.19 321.44-17.29 321.41-17.38 321.36-17.5L321.36-17.5 318.12-26.42Q318-26.76 317.75-26.92 317.51-27.08 317.31-27.08L317.31-27.08Q317.12-27.08 316.87-26.89 316.63-26.71 316.51-26.39L316.51-26.39ZM339.21-0.98L339.21-1.27Q339.21-1.29 339.23-1.38 339.26-1.46 339.4-1.46L339.4-1.46Q339.55-1.46 339.87-1.51 340.18-1.56 340.53-1.61 340.87-1.66 341.16-1.72 341.45-1.78 341.58-1.81L341.58-1.81Q342.97-2.12 343.52-2.84 344.07-3.56 344.07-4.64L344.07-4.64 344.07-29.44Q344.07-30.66 343.55-31.37 343.04-32.08 342.37-32.43 341.7-32.79 341.08-32.87 340.45-32.96 340.23-32.96L340.23-32.96 339.31-32.96Q339.18-32.96 339.15-33.03 339.11-33.11 339.11-33.15L339.11-33.15 339.11-34.23Q339.11-34.28 339.14-34.34 339.16-34.4 339.31-34.42L339.31-34.42Q339.33-34.42 339.42-34.42 339.5-34.42 339.77-34.44 340.04-34.45 340.55-34.46 341.06-34.47 341.99-34.5L341.99-34.5Q343.33-34.52 344.86-34.57 346.39-34.62 347.95-34.67 349.51-34.72 351.04-34.75 352.56-34.79 353.91-34.79L353.91-34.79 356.37-34.79Q358.3-34.79 360.3-34.13 362.3-33.47 363.93-32.19 365.55-30.91 366.59-29 367.63-27.1 367.63-24.61L367.63-24.61Q367.63-23 367.19-21.74 366.75-20.48 365.98-19.52 365.21-18.55 364.15-17.82 363.09-17.09 361.84-16.53L361.84-16.53 369.24-4.81Q370.19-3.3 371.46-2.06 372.73-0.83 374.41-0.34L374.41-0.34Q374.61-0.29 374.65-0.21 374.68-0.12 374.68 0L374.68 0Q374.68 0.37 374.49 0.49 374.29 0.61 373.88 0.61L373.88 0.61Q372.85 0.61 371.54 0.48 370.24 0.34 368.92 0.04 367.6-0.27 366.42-0.76 365.23-1.25 364.43-1.98L364.43-1.98Q363.65-2.66 362.84-3.71 362.04-4.76 361.22-5.97 360.4-7.18 359.61-8.48 358.81-9.79 358.07-11.04 357.32-12.28 356.64-13.35 355.96-14.43 355.39-15.19L355.39-15.19 351.59-15.45Q351.56-15.45 351.39-15.45 351.22-15.45 351.15-15.41L351.15-15.41Q351.07-15.36 351.05-15.31 351.02-15.26 351.02-15.11L351.02-15.11 351.02-4.71Q351.02-4.05 351.2-3.56 351.37-3.08 351.77-2.72 352.17-2.37 352.82-2.15 353.47-1.93 354.39-1.81L354.39-1.81Q354.54-1.78 354.82-1.73 355.1-1.68 355.43-1.62 355.76-1.56 356.08-1.51 356.4-1.46 356.62-1.46L356.62-1.46Q356.76-1.46 356.79-1.39 356.81-1.32 356.81-1.27L356.81-1.27 356.81-0.2Q356.81-0.15 356.77-0.07 356.74 0 356.62 0L356.62 0 339.4 0Q339.28 0 339.25-0.34 339.21-0.68 339.21-0.98L339.21-0.98ZM351.02-18.63L351.07-17.9Q351.1-17.7 351.18-17.54 351.27-17.38 351.54-17.36L351.54-17.36Q351.76-17.33 352.2-17.27 352.64-17.21 353.42-17.21L353.42-17.21Q355.57-17.21 356.96-17.87 358.35-18.53 359.15-19.64 359.96-20.75 360.27-22.19 360.57-23.63 360.57-25.2L360.57-25.2Q360.57-26.83 360.06-28.3 359.55-29.76 358.63-30.83 357.71-31.91 356.43-32.54 355.15-33.18 353.61-33.18L353.61-33.18Q353.27-33.18 353.08-33.17 352.88-33.15 352.7-33.14 352.51-33.13 352.28-33.12 352.05-33.11 351.64-33.08L351.64-33.08Q351.49-33.08 351.26-33.02 351.02-32.96 351.02-32.69L351.02-32.69 351.02-18.63ZM385.84-30.69L385.84-30.69Q385.84-31.2 385.63-31.26 385.42-31.32 385.13-31.37L385.13-31.37 376.85-31.37Q375.95-31.18 375.44-30.65 374.92-30.13 374.63-29.42 374.34-28.71 374.19-27.89 374.04-27.08 373.87-26.32L373.87-26.32Q373.83-26.1 373.78-25.79 373.73-25.49 373.68-25.44L373.68-25.44Q373.63-25.37 373.51-25.37L373.51-25.37 372.7-25.37Q372.56-25.37 372.56-25.46L372.56-25.46 372.56-26.27 373.46-34.62Q373.51-34.89 373.68-35.13 373.85-35.38 374.22-35.38L374.22-35.38Q374.39-35.38 374.55-35.28 374.7-35.18 374.85-35.05 375-34.91 375.13-34.79 375.27-34.67 375.41-34.62L375.41-34.62Q375.7-34.5 375.96-34.46 376.22-34.42 376.54-34.42L376.54-34.42 402.12-34.42Q402.44-34.42 402.69-34.46 402.95-34.5 403.24-34.62L403.24-34.62Q403.39-34.67 403.52-34.79 403.66-34.91 403.81-35.05 403.95-35.18 404.11-35.28 404.27-35.38 404.44-35.38L404.44-35.38Q404.81-35.38 404.98-35.13 405.15-34.89 405.2-34.62L405.2-34.62 406.1-26.27 406.1-25.46Q406.1-25.37 405.95-25.37L405.95-25.37 405.15-25.37Q405.03-25.37 404.98-25.44L404.98-25.44Q404.93-25.49 404.88-25.79 404.83-26.1 404.78-26.32L404.78-26.32Q404.61-27.08 404.46-27.89 404.32-28.71 404.03-29.42 403.73-30.13 403.22-30.65 402.71-31.18 401.8-31.37L401.8-31.37 393.5-31.37Q393.21-31.32 393-31.26 392.79-31.2 392.79-30.69L392.79-30.69 392.79-4.76Q392.79-4.03 393.16-3.45 393.53-2.88 394.15-2.44 394.77-2 395.61-1.73 396.46-1.46 397.41-1.37L397.41-1.37Q397.68-1.34 398.09-1.34 398.51-1.34 398.8-1.34L398.8-1.34Q398.92-1.34 398.96-1.27 399-1.2 399-1.15L399-1.15 399-0.2Q399-0.15 398.96-0.07 398.92 0 398.8 0L398.8 0 379.83 0Q379.71 0 379.67-0.07 379.64-0.15 379.64-0.2L379.64-0.2 379.64-1.15Q379.64-1.2 379.67-1.27 379.71-1.34 379.83-1.34L379.83-1.34Q380.1-1.34 380.53-1.34 380.95-1.34 381.22-1.37L381.22-1.37Q382.17-1.46 383.02-1.73 383.86-2 384.48-2.44 385.1-2.88 385.47-3.45 385.84-4.03 385.84-4.76L385.84-4.76 385.84-30.69Z" opacity="1" transform="matrix(1,0,0,1,0,0)" fill="#000000" class="undefined-text-0" data-fill-palette-color="primary" id="text-0"></path></svg></g></svg></g></svg></g></svg></g><g><svg viewBox="0 0 76.24909014843027 61.88833678910742" height="61.88833678910742" width="76.24909014843027"><g><svg version="1.1" xmlns="http://www.w3.org/2000/svg" xmlns:xlink="http://www.w3.org/1999/xlink" x="0" y="0" viewBox="0 0 100 81.16600036621094" enable-background="new 0 0 100 81.166" xml:space="preserve" width="76.24909014843027" height="61.88833678910742" class="icon-icon-0" data-fill-palette-color="accent" id="icon-0"><path d="M87.043 0H50 12.957L0 23.557l50 57.609 50-57.609L87.043 0zM83.635 6.345l7.59 13.801h-13.64L83.635 6.345zM77.168 6.043l-5.537 12.636L57.792 6.043H77.168zM64.273 20.146H50 35.727L50 7.113 64.273 20.146zM42.208 6.043L28.37 18.679 22.832 6.043H42.208zM16.365 6.345l6.05 13.801H8.775L16.365 6.345zM10.288 26.189h14.776l15.078 34.399L10.288 26.189zM31.663 26.189H50h18.338L50 68.022 31.663 26.189zM59.857 60.589l15.078-34.399h14.777L59.857 60.589z" fill="#000000" data-fill-palette-color="accent"></path></svg></g></svg></g></svg></g><defs></defs></svg><rect width="395.52" height="49.25648341768835" fill="none" stroke="none" visibility="hidden"></rect></g></svg></g></svg>